<mxfile host="app.diagrams.net" modified="2024-05-09T00:34:17.900Z" agent="Mozilla/5.0 (Windows NT 10.0; Win64; x64) AppleWebKit/537.36 (KHTML, like Gecko) Chrome/124.0.0.0 Safari/537.36" etag="N_biVloLgh_4VIPknIFV" version="24.3.1" type="device">
  <diagram id="C5RBs43oDa-KdzZeNtuy" name="Page-1">
    <mxGraphModel dx="1050" dy="557" grid="1" gridSize="10" guides="1" tooltips="1" connect="1" arrows="1" fold="1" page="1" pageScale="1" pageWidth="827" pageHeight="1169" math="0" shadow="0">
      <root>
        <mxCell id="WIyWlLk6GJQsqaUBKTNV-0" />
        <mxCell id="WIyWlLk6GJQsqaUBKTNV-1" parent="WIyWlLk6GJQsqaUBKTNV-0" />
        <mxCell id="Fc0ehVboIv3PFCzGB2Kd-2" style="edgeStyle=orthogonalEdgeStyle;rounded=0;orthogonalLoop=1;jettySize=auto;html=1;exitX=0.5;exitY=1;exitDx=0;exitDy=0;entryX=0.5;entryY=0;entryDx=0;entryDy=0;" parent="WIyWlLk6GJQsqaUBKTNV-1" source="Fc0ehVboIv3PFCzGB2Kd-0" edge="1">
          <mxGeometry relative="1" as="geometry">
            <mxPoint x="414" y="100" as="targetPoint" />
          </mxGeometry>
        </mxCell>
        <mxCell id="Fc0ehVboIv3PFCzGB2Kd-0" value="Inicio" style="ellipse;whiteSpace=wrap;html=1;" parent="WIyWlLk6GJQsqaUBKTNV-1" vertex="1">
          <mxGeometry x="370" y="10" width="90" height="60" as="geometry" />
        </mxCell>
        <mxCell id="Fc0ehVboIv3PFCzGB2Kd-5" style="edgeStyle=orthogonalEdgeStyle;rounded=0;orthogonalLoop=1;jettySize=auto;html=1;exitX=0.5;exitY=1;exitDx=0;exitDy=0;" parent="WIyWlLk6GJQsqaUBKTNV-1" target="Fc0ehVboIv3PFCzGB2Kd-4" edge="1">
          <mxGeometry relative="1" as="geometry">
            <mxPoint x="414" y="160" as="sourcePoint" />
          </mxGeometry>
        </mxCell>
        <mxCell id="Fc0ehVboIv3PFCzGB2Kd-7" style="edgeStyle=orthogonalEdgeStyle;rounded=0;orthogonalLoop=1;jettySize=auto;html=1;exitX=1;exitY=0.5;exitDx=0;exitDy=0;entryX=0;entryY=0.5;entryDx=0;entryDy=0;" parent="WIyWlLk6GJQsqaUBKTNV-1" source="Fc0ehVboIv3PFCzGB2Kd-4" edge="1">
          <mxGeometry relative="1" as="geometry">
            <mxPoint x="570" y="265" as="targetPoint" />
          </mxGeometry>
        </mxCell>
        <mxCell id="Fc0ehVboIv3PFCzGB2Kd-11" style="edgeStyle=orthogonalEdgeStyle;rounded=0;orthogonalLoop=1;jettySize=auto;html=1;exitX=0.5;exitY=1;exitDx=0;exitDy=0;entryX=0.5;entryY=0;entryDx=0;entryDy=0;" parent="WIyWlLk6GJQsqaUBKTNV-1" source="Fc0ehVboIv3PFCzGB2Kd-4" target="Fc0ehVboIv3PFCzGB2Kd-10" edge="1">
          <mxGeometry relative="1" as="geometry" />
        </mxCell>
        <mxCell id="Fc0ehVboIv3PFCzGB2Kd-4" value="number_of_docs &amp;lt;= 0" style="rhombus;whiteSpace=wrap;html=1;" parent="WIyWlLk6GJQsqaUBKTNV-1" vertex="1">
          <mxGeometry x="344" y="220" width="140" height="110" as="geometry" />
        </mxCell>
        <mxCell id="Fc0ehVboIv3PFCzGB2Kd-22" style="edgeStyle=orthogonalEdgeStyle;rounded=0;orthogonalLoop=1;jettySize=auto;html=1;exitX=1;exitY=0.5;exitDx=0;exitDy=0;entryX=0.5;entryY=1;entryDx=0;entryDy=0;" parent="WIyWlLk6GJQsqaUBKTNV-1" edge="1">
          <mxGeometry relative="1" as="geometry">
            <Array as="points">
              <mxPoint x="790" y="275" />
              <mxPoint x="790" y="680" />
              <mxPoint x="414" y="680" />
            </Array>
            <mxPoint x="720" y="265" as="sourcePoint" />
            <mxPoint x="414" y="630" as="targetPoint" />
          </mxGeometry>
        </mxCell>
        <mxCell id="Fc0ehVboIv3PFCzGB2Kd-8" value="Si" style="text;html=1;align=center;verticalAlign=middle;resizable=0;points=[];autosize=1;strokeColor=none;fillColor=none;" parent="WIyWlLk6GJQsqaUBKTNV-1" vertex="1">
          <mxGeometry x="500" y="250" width="30" height="30" as="geometry" />
        </mxCell>
        <mxCell id="Fc0ehVboIv3PFCzGB2Kd-14" style="edgeStyle=orthogonalEdgeStyle;rounded=0;orthogonalLoop=1;jettySize=auto;html=1;exitX=1;exitY=0.5;exitDx=0;exitDy=0;entryX=0;entryY=0.5;entryDx=0;entryDy=0;" parent="WIyWlLk6GJQsqaUBKTNV-1" source="Fc0ehVboIv3PFCzGB2Kd-10" edge="1">
          <mxGeometry relative="1" as="geometry">
            <mxPoint x="560" y="443" as="targetPoint" />
          </mxGeometry>
        </mxCell>
        <mxCell id="Fc0ehVboIv3PFCzGB2Kd-18" style="edgeStyle=orthogonalEdgeStyle;rounded=0;orthogonalLoop=1;jettySize=auto;html=1;exitX=0;exitY=0.5;exitDx=0;exitDy=0;entryX=1;entryY=0.5;entryDx=0;entryDy=0;" parent="WIyWlLk6GJQsqaUBKTNV-1" source="Fc0ehVboIv3PFCzGB2Kd-10" edge="1">
          <mxGeometry relative="1" as="geometry">
            <mxPoint x="250" y="443" as="targetPoint" />
          </mxGeometry>
        </mxCell>
        <mxCell id="Fc0ehVboIv3PFCzGB2Kd-10" value="number_of_docs == 1" style="rhombus;whiteSpace=wrap;html=1;" parent="WIyWlLk6GJQsqaUBKTNV-1" vertex="1">
          <mxGeometry x="344.5" y="378" width="139" height="130" as="geometry" />
        </mxCell>
        <mxCell id="Fc0ehVboIv3PFCzGB2Kd-12" value="No" style="text;html=1;align=center;verticalAlign=middle;resizable=0;points=[];autosize=1;strokeColor=none;fillColor=none;" parent="WIyWlLk6GJQsqaUBKTNV-1" vertex="1">
          <mxGeometry x="410" y="348" width="40" height="30" as="geometry" />
        </mxCell>
        <mxCell id="Fc0ehVboIv3PFCzGB2Kd-24" style="edgeStyle=orthogonalEdgeStyle;rounded=0;orthogonalLoop=1;jettySize=auto;html=1;entryX=0;entryY=0.5;entryDx=0;entryDy=0;" parent="WIyWlLk6GJQsqaUBKTNV-1" edge="1">
          <mxGeometry relative="1" as="geometry">
            <Array as="points">
              <mxPoint x="150" y="590" />
              <mxPoint x="297" y="590" />
              <mxPoint x="297" y="585" />
            </Array>
            <mxPoint x="150" y="513" as="sourcePoint" />
            <mxPoint x="334" y="585" as="targetPoint" />
          </mxGeometry>
        </mxCell>
        <mxCell id="Fc0ehVboIv3PFCzGB2Kd-19" value="Si" style="text;html=1;align=center;verticalAlign=middle;resizable=0;points=[];autosize=1;strokeColor=none;fillColor=none;" parent="WIyWlLk6GJQsqaUBKTNV-1" vertex="1">
          <mxGeometry x="500" y="410" width="30" height="30" as="geometry" />
        </mxCell>
        <mxCell id="Fc0ehVboIv3PFCzGB2Kd-20" value="No" style="text;html=1;align=center;verticalAlign=middle;resizable=0;points=[];autosize=1;strokeColor=none;fillColor=none;" parent="WIyWlLk6GJQsqaUBKTNV-1" vertex="1">
          <mxGeometry x="280" y="410" width="40" height="30" as="geometry" />
        </mxCell>
        <mxCell id="Fc0ehVboIv3PFCzGB2Kd-26" style="edgeStyle=orthogonalEdgeStyle;rounded=0;orthogonalLoop=1;jettySize=auto;html=1;exitX=0;exitY=1;exitDx=0;exitDy=0;entryX=1;entryY=0;entryDx=0;entryDy=0;" parent="WIyWlLk6GJQsqaUBKTNV-1" target="Fc0ehVboIv3PFCzGB2Kd-25" edge="1">
          <mxGeometry relative="1" as="geometry">
            <mxPoint x="334" y="630" as="sourcePoint" />
          </mxGeometry>
        </mxCell>
        <mxCell id="Fc0ehVboIv3PFCzGB2Kd-25" value="Fin" style="ellipse;whiteSpace=wrap;html=1;" parent="WIyWlLk6GJQsqaUBKTNV-1" vertex="1">
          <mxGeometry x="224" y="700" width="120" height="80" as="geometry" />
        </mxCell>
        <mxCell id="-j72Cv5HBc860f-1FAnC-0" value="Crear variable re" style="rounded=0;whiteSpace=wrap;html=1;" vertex="1" parent="WIyWlLk6GJQsqaUBKTNV-1">
          <mxGeometry x="355" y="100" width="120" height="60" as="geometry" />
        </mxCell>
        <mxCell id="-j72Cv5HBc860f-1FAnC-1" value="re = &quot;No se encontraron documentos&quot;" style="rounded=0;whiteSpace=wrap;html=1;" vertex="1" parent="WIyWlLk6GJQsqaUBKTNV-1">
          <mxGeometry x="570" y="230" width="150" height="60" as="geometry" />
        </mxCell>
        <mxCell id="-j72Cv5HBc860f-1FAnC-2" value="&amp;nbsp;re = to_string(number_of_docs)&lt;div&gt;&amp;nbsp;+&amp;nbsp;&lt;div&gt;&quot; documentos encontrados&quot;&lt;/div&gt;&lt;/div&gt;" style="rounded=0;whiteSpace=wrap;html=1;" vertex="1" parent="WIyWlLk6GJQsqaUBKTNV-1">
          <mxGeometry x="60" y="380" width="186" height="130" as="geometry" />
        </mxCell>
        <mxCell id="-j72Cv5HBc860f-1FAnC-6" style="edgeStyle=orthogonalEdgeStyle;rounded=0;orthogonalLoop=1;jettySize=auto;html=1;exitX=0.5;exitY=1;exitDx=0;exitDy=0;entryX=1;entryY=0.5;entryDx=0;entryDy=0;" edge="1" parent="WIyWlLk6GJQsqaUBKTNV-1" source="-j72Cv5HBc860f-1FAnC-3" target="-j72Cv5HBc860f-1FAnC-5">
          <mxGeometry relative="1" as="geometry">
            <Array as="points">
              <mxPoint x="625" y="580" />
              <mxPoint x="480" y="580" />
            </Array>
          </mxGeometry>
        </mxCell>
        <mxCell id="-j72Cv5HBc860f-1FAnC-3" value="re = &quot;Se encontro un documento&quot;" style="rounded=0;whiteSpace=wrap;html=1;" vertex="1" parent="WIyWlLk6GJQsqaUBKTNV-1">
          <mxGeometry x="560" y="410" width="130" height="80" as="geometry" />
        </mxCell>
        <mxCell id="-j72Cv5HBc860f-1FAnC-5" value="Retornar re" style="shape=parallelogram;perimeter=parallelogramPerimeter;whiteSpace=wrap;html=1;fixedSize=1;" vertex="1" parent="WIyWlLk6GJQsqaUBKTNV-1">
          <mxGeometry x="320" y="540" width="170" height="90" as="geometry" />
        </mxCell>
      </root>
    </mxGraphModel>
  </diagram>
</mxfile>
